<svg xmlns="http://www.w3.org/2000/svg" xmlns:svg="http://www.w3.org/2000/svg" xmlns:xlink="http://www.w3.org/1999/xlink" id="svg3901" width="48" height="48" version="1.1"><defs id="defs3903"><linearGradient id="linearGradient3403"><stop style="stop-color:#fff;stop-opacity:1" id="stop3405" offset="0"/><stop style="stop-color:#fff;stop-opacity:.23529412" id="stop3407" offset="0"/><stop style="stop-color:#fff;stop-opacity:.15686275" id="stop3409" offset="1"/><stop style="stop-color:#fff;stop-opacity:.39215687" id="stop3411" offset="1"/></linearGradient><linearGradient id="linearGradient3600"><stop id="stop3602" offset="0" style="stop-color:#f4f4f4;stop-opacity:1"/><stop id="stop3604" offset="1" style="stop-color:#dbdbdb;stop-opacity:1"/></linearGradient><linearGradient id="linearGradient5060"><stop id="stop5062" offset="0" style="stop-color:#000;stop-opacity:1"/><stop id="stop5064" offset="1" style="stop-color:#000;stop-opacity:0"/></linearGradient><linearGradient id="linearGradient5048"><stop id="stop5050" offset="0" style="stop-color:#000;stop-opacity:0"/><stop id="stop5056" offset=".5" style="stop-color:#000;stop-opacity:1"/><stop id="stop5052" offset="1" style="stop-color:#000;stop-opacity:0"/></linearGradient><linearGradient id="linearGradient3104-6"><stop style="stop-color:#000;stop-opacity:.31782946" id="stop3106-3" offset="0"/><stop style="stop-color:#000;stop-opacity:.24031007" id="stop3108-9" offset="1"/></linearGradient><linearGradient id="linearGradient3106" x1="24" x2="24" y1="5.94" y2="42.111" gradientTransform="matrix(0.89189189,0,0,1.1351351,2.5945999,-4.7432314)" gradientUnits="userSpaceOnUse" xlink:href="#linearGradient3403"/><linearGradient id="linearGradient3109" x1="25.132" x2="25.132" y1=".985" y2="47.013" gradientTransform="matrix(0.97142632,0,0,0.93431938,0.68576678,-1.3569996)" gradientUnits="userSpaceOnUse" xlink:href="#linearGradient3600"/><radialGradient id="radialGradient3112" cx="605.714" cy="486.648" r="117.143" fx="605.714" fy="486.648" gradientTransform="matrix(0.02303995,0,0,0.01470022,26.360882,37.040176)" gradientUnits="userSpaceOnUse" xlink:href="#linearGradient5060"/><radialGradient id="radialGradient3115" cx="605.714" cy="486.648" r="117.143" fx="605.714" fy="486.648" gradientTransform="matrix(-0.02303994,0,0,0.01470022,21.62311,37.040176)" gradientUnits="userSpaceOnUse" xlink:href="#linearGradient5060"/><linearGradient id="linearGradient3118" x1="302.857" x2="302.857" y1="366.648" y2="609.505" gradientTransform="matrix(0.06732488,0,0,0.01470022,-0.3411391,37.040146)" gradientUnits="userSpaceOnUse" xlink:href="#linearGradient5048"/><linearGradient id="linearGradient3170" x1="-51.786" x2="-51.786" y1="50.786" y2="2.906" gradientTransform="matrix(0.80749686,0,0,0.89471714,59.410232,-2.9773433)" gradientUnits="userSpaceOnUse" xlink:href="#linearGradient3104-6"/><linearGradient id="linearGradient2867-449-88-871-390-598-476-591-434-148-57-177-8-3"><stop id="stop3750-1-0" offset="0" style="stop-color:#90dbec;stop-opacity:1"/><stop id="stop3752-3-7" offset=".262" style="stop-color:#55c1ec;stop-opacity:1"/><stop id="stop3754-1-8" offset=".705" style="stop-color:#3689e6;stop-opacity:1"/><stop id="stop3756-1-6" offset="1" style="stop-color:#2b63a0;stop-opacity:1"/></linearGradient><radialGradient id="radialGradient4200-4" cx="5.649" cy="9.957" r="12.672" fx="5.119" fy="9.957" gradientTransform="matrix(-1.5324784e-7,6.4910062,-7.6705026,-1.9484253e-7,99.953972,-58.68638)" gradientUnits="userSpaceOnUse" xlink:href="#linearGradient2867-449-88-871-390-598-476-591-434-148-57-177-8-3"/></defs><metadata id="metadata3906"/><rect style="opacity:.3;fill:url(#linearGradient3118);fill-opacity:1;fill-rule:nonzero;stroke:none;stroke-width:1;marker:none;visibility:visible;display:inline;overflow:visible" id="rect2879" width="32.508" height="3.57" x="7.738" y="42.43"/><path style="opacity:.3;fill:url(#radialGradient3115);fill-opacity:1;fill-rule:nonzero;stroke:none;stroke-width:1;marker:none;visibility:visible;display:inline;overflow:visible" id="path2881" d="m 7.7378475,42.430102 c 0,0 0,3.569856 0,3.569856 -1.1865002,0.0067 -2.8683795,-0.799823 -2.8683795,-1.785158 0,-0.985333 1.3240446,-1.784697 2.8683795,-1.784698 z"/><path style="opacity:.3;fill:url(#radialGradient3112);fill-opacity:1;fill-rule:nonzero;stroke:none;stroke-width:1;marker:none;visibility:visible;display:inline;overflow:visible" id="path2883" d="m 40.246148,42.430102 c 0,0 0,3.569856 0,3.569856 1.1865,0.0067 2.86838,-0.799823 2.86838,-1.785158 0,-0.985333 -1.324045,-1.784697 -2.86838,-1.784698 z"/><path style="fill:url(#linearGradient3109);fill-opacity:1;stroke:none;display:inline" id="path4160" d="m 7,1.0000001 c 7.791126,0 33.999959,0.00274 33.999959,0.00274 L 41,44 C 41,44 18.333334,44 7,44 7,29.666666 7,15.333333 7,1 z"/><path style="fill:none;stroke:url(#linearGradient3106);stroke-width:1;stroke-linecap:round;stroke-linejoin:miter;stroke-miterlimit:4;stroke-opacity:1;stroke-dasharray:none;stroke-dashoffset:0" id="rect6741-1" d="m 40.5,43.5 -33,0 0,-41.9999998 33,0 z"/><path style="fill:none;stroke:url(#linearGradient3170);stroke-width:.99992192;stroke-linecap:butt;stroke-linejoin:round;stroke-miterlimit:4;stroke-opacity:1;stroke-dasharray:none;stroke-dashoffset:0;display:inline" id="path4160-6-1" d="m 6.4999605,0.4999623 c 8.0202885,0 35.0000415,0.00298 35.0000415,0.00298 l 3.7e-5,43.9970957 c 0,0 -23.333385,0 -35.0000785,0 0,-14.666738 0,-29.333326 0,-43.9998923 z"/><path style="fill:url(#radialGradient4200-4);stroke:none;color:#000;clip-rule:nonzero;display:inline;overflow:visible;visibility:visible;opacity:1;isolation:auto;mix-blend-mode:normal;color-interpolation:sRGB;color-interpolation-filters:linearRGB;solid-color:#000;solid-opacity:1;fill-opacity:1;fill-rule:nonzero;stroke-width:1;stroke-linecap:butt;stroke-linejoin:miter;stroke-miterlimit:4;stroke-dasharray:none;stroke-dashoffset:0;stroke-opacity:1;marker:none;filter-blend-mode:normal;filter-gaussianBlur-deviation:0;color-rendering:auto;image-rendering:auto;shape-rendering:auto;text-rendering:auto;enable-background:accumulate" id="path3879" d="M 17.75,14.75 C 16.432948,14.76066 14.774699,14.853885 13,15.15625 L 13,32 l 4,0 0,-6.09375 c 0,0 7.881554,0.731286 8.03125,-5.03125 0,0 1.03964,-6.192367 -7.28125,-6.125 z m 0.40625,3 c 2.426999,0.0091 3.062209,0.869746 3.125,2.46875 C 21.28125,23.571531 17,22.75 17,22.75 l 0,-4.9375 c 0.423662,-0.03251 0.809536,-0.06379 1.15625,-0.0625 z m 12.25,1.46875 c -0.971367,0.04397 -1.929108,0.269708 -2.78125,0.75 -1.578811,0.930899 -1.77598,3.202648 -0.90625,4.6875 1.086843,1.604321 3.177432,1.834878 4.65625,2.9375 0.750707,0.49843 0.364171,1.763072 -0.5,1.84375 -1.592336,0.260558 -3.193524,-0.31522 -4.625,-0.96875 l 0,2.28125 c -0.198531,0.675895 0.631678,0.692696 1.09375,0.875 1.719366,0.417098 3.581629,0.479861 5.28125,-0.0625 1.50131,-0.441974 2.580978,-1.938346 2.5,-3.5 -5.23e-4,-0.418225 -0.07999,-0.822199 -0.21875,-1.21875 -0.59155,-1.63988 -2.427884,-2.174582 -3.84375,-2.875 -0.899693,-0.230442 -2.224157,-1.355809 -1.03125,-2.125 1.340661,-0.420702 2.72677,0.206239 3.9375,0.75 L 34.84375,20.5 c 0.292694,-0.658139 -1.126295,-0.648265 -1.5625,-0.9375 -0.919631,-0.259166 -1.903632,-0.387719 -2.875,-0.34375 z"/></svg>