<svg xmlns="http://www.w3.org/2000/svg" width="24" height="24" version="1.2" viewBox="0 0 24 24"><style>.a,.b{fill:none}.b{stroke:#000;stroke-linecap:round;stroke-linejoin:round;stroke-width:2}</style><path fill-rule="evenodd" d="m0 0h24v24h-24z" class="a"/><path d="m12 6h-6q-0.4 0-0.8 0.2-0.3 0.1-0.6 0.4-0.3 0.3-0.4 0.6-0.2 0.4-0.2 0.8v10q0 0.4 0.2 0.8 0.1 0.3 0.4 0.6 0.3 0.3 0.6 0.4 0.4 0.2 0.8 0.2h10q0.4 0 0.8-0.2 0.3-0.1 0.6-0.4 0.3-0.3 0.4-0.6 0.2-0.4 0.2-0.8v-6" class="b" style="stroke:#fff"/><path d="m11 13l9-9" class="b" style="stroke:#fff"/><path d="m15 4h5v5" class="b" style="stroke:#fff"/></svg>