<svg xmlns="http://www.w3.org/2000/svg" width="256" height="256" fill="none" stroke="#0f94e6" viewBox="0 0 24 24"><g id="SVGRepo_iconCarrier"><path fill="#30698d" d="M21 12C21 16.9706 16.9706 21 12 21C7.02944 21 3 16.9706 3 12C3 7.02944 7.02944 3 12 3C16.9706 3 21 7.02944 21 12Z" opacity=".15"/><path stroke="#30698d" stroke-linecap="round" stroke-linejoin="round" stroke-width="1.5" d="M12 17V16.9929M12 14.8571C12 11.6429 15 12.3571 15 9.85714C15 8.27919 13.6568 7 12 7C10.6567 7 9.51961 7.84083 9.13733 9M21 12C21 16.9706 16.9706 21 12 21C7.02944 21 3 16.9706 3 12C3 7.02944 7.02944 3 12 3C16.9706 3 21 7.02944 21 12Z"/></g></svg>