<svg xmlns="http://www.w3.org/2000/svg" width="48" height="48" version="1.2" viewBox="0 0 48 48"><title>start-svg</title><style>.s0{opacity:.2;fill:#000}.s1{fill:#69a2f5}.s2{opacity:.2}.s2,.s3{fill:#fff}</style><g id="Layer 1"><path id="Layer" fill-rule="evenodd" d="m24.5 47c-12.4 0-22.5-10-22.5-22.5 0-12.4 10.1-22.4 22.5-22.4 12.4 0 22.5 10 22.5 22.4 0 12.5-10.1 22.5-22.5 22.5z" class="s0"/><path id="Layer" fill-rule="evenodd" d="m24.5 45.9c-12.4 0-22.5-10.1-22.5-22.5 0-12.4 10.1-22.4 22.5-22.4 12.4 0 22.5 10 22.5 22.4 0 12.4-10.1 22.5-22.5 22.5z" class="s1"/><path id="Layer" fill-rule="evenodd" d="m24.5 1c-12.4 0-22.5 10-22.5 22.4q0 0.3 0.1 0.6c0.2-12.2 10.1-21.9 22.4-21.9 12.3 0 22.2 9.7 22.4 21.9q0.1-0.3 0.1-0.6c0-12.4-10.1-22.4-22.5-22.4z" class="s2"/><path id="Layer" fill-rule="evenodd" d="m11 14.2c0-1.1 0.9-2 2-2h2.8c1.1 0 2 0.9 2 2v2.7c0 1.1-0.9 2-2 2h-2.8c-1.1 0-2-0.9-2-2z" class="s0"/><path id="Layer" fill-rule="evenodd" d="m21.1 14.2c0-1.1 0.9-2 2-2h2.8c1.1 0 2 0.9 2 2v2.7c0 1.1-0.9 2-2 2h-2.8c-1.1 0-2-0.9-2-2z" class="s0"/><path id="Layer" fill-rule="evenodd" d="m31.2 14.2c0-1.1 0.9-2 2-2h2.8c1.1 0 2 0.9 2 2v2.7c0 1.1-0.9 2-2 2h-2.8c-1.1 0-2-0.9-2-2z" class="s0"/><path id="Layer" fill-rule="evenodd" d="m11 23.2c0-1.1 0.9-2 2-2h2.8c1.1 0 2 0.9 2 2v2.7c0 1.1-0.9 2-2 2h-2.8c-1.1 0-2-0.9-2-2z" class="s0"/><path id="Layer" fill-rule="evenodd" d="m21.1 23.2c0-1.1 0.9-2 2-2h2.8c1.1 0 2 0.9 2 2v2.7c0 1.1-0.9 2-2 2h-2.8c-1.1 0-2-0.9-2-2z" class="s0"/><path id="Layer" fill-rule="evenodd" d="m31.2 23.2c0-1.1 0.9-2 2-2h2.8c1.1 0 2 0.9 2 2v2.7c0 1.1-0.9 2-2 2h-2.8c-1.1 0-2-0.9-2-2z" class="s0"/><path id="Layer" fill-rule="evenodd" d="m11 32.2c0-1.1 0.9-2 2-2h2.8c1.1 0 2 0.9 2 2v2.7c0 1.1-0.9 2-2 2h-2.8c-1.1 0-2-0.9-2-2z" class="s0"/><path id="Layer" fill-rule="evenodd" d="m21.1 32.2c0-1.1 0.9-2 2-2h2.8c1.1 0 2 0.9 2 2v2.7c0 1.1-0.9 2-2 2h-2.8c-1.1 0-2-0.9-2-2z" class="s0"/><path id="Layer" fill-rule="evenodd" d="m31.2 32.2c0-1.1 0.9-2 2-2h2.8c1.1 0 2 0.9 2 2v2.7c0 1.1-0.9 2-2 2h-2.8c-1.1 0-2-0.9-2-2z" class="s0"/><g id="Layer"><path id="Layer" fill-rule="evenodd" d="m11 13.1c0-1.1 0.9-2 2-2h2.8c1.1 0 2 0.9 2 2v2.7c0 1.1-0.9 2-2 2h-2.8c-1.1 0-2-0.9-2-2z" class="s3"/><path id="Layer" fill-rule="evenodd" d="m21.1 13.1c0-1.1 0.9-2 2-2h2.8c1.1 0 2 0.9 2 2v2.7c0 1.1-0.9 2-2 2h-2.8c-1.1 0-2-0.9-2-2z" class="s3"/><path id="Layer" fill-rule="evenodd" d="m31.2 13.1c0-1.1 0.9-2 2-2h2.8c1.1 0 2 0.9 2 2v2.7c0 1.1-0.9 2-2 2h-2.8c-1.1 0-2-0.9-2-2z" class="s3"/><path id="Layer" fill-rule="evenodd" d="m11 22.1c0-1.1 0.9-2 2-2h2.8c1.1 0 2 0.9 2 2v2.7c0 1.1-0.9 2-2 2h-2.8c-1.1 0-2-0.9-2-2z" class="s3"/><path id="Layer" fill-rule="evenodd" d="m21.1 22.1c0-1.1 0.9-2 2-2h2.8c1.1 0 2 0.9 2 2v2.7c0 1.1-0.9 2-2 2h-2.8c-1.1 0-2-0.9-2-2z" class="s3"/><path id="Layer" fill-rule="evenodd" d="m31.2 22.1c0-1.1 0.9-2 2-2h2.8c1.1 0 2 0.9 2 2v2.7c0 1.1-0.9 2-2 2h-2.8c-1.1 0-2-0.9-2-2z" class="s3"/><path id="Layer" fill-rule="evenodd" d="m11 31c0-1.1 0.9-2 2-2h2.8c1.1 0 2 0.9 2 2v2.8c0 1.1-0.9 2-2 2h-2.8c-1.1 0-2-0.9-2-2z" class="s3"/><path id="Layer" fill-rule="evenodd" d="m21.1 31c0-1.1 0.9-2 2-2h2.8c1.1 0 2 0.9 2 2v2.8c0 1.1-0.9 2-2 2h-2.8c-1.1 0-2-0.9-2-2z" class="s3"/><path id="Layer" fill-rule="evenodd" d="m31.2 31c0-1.1 0.9-2 2-2h2.8c1.1 0 2 0.9 2 2v2.8c0 1.1-0.9 2-2 2h-2.8c-1.1 0-2-0.9-2-2z" class="s3"/></g></g></svg>