<svg xmlns="http://www.w3.org/2000/svg" width="24" height="24" viewBox="0 0 24 24"><title>drag</title><g fill="#212121" class="nc-icon-wrapper"><polygon points="2 5 0 5 0 0 5 0 5 2 2 2" data-color="color-2"/><polygon points="5 20 0 20 0 15 2 15 2 18 5 18" data-color="color-2"/><polygon points="20 5 18 5 18 2 15 2 15 0 20 0" data-color="color-2"/><rect width="4" height="2" x="8" data-color="color-2"/><rect width="4" height="2" x="8" y="18" data-color="color-2"/><rect width="2" height="4" x="18" y="8" data-color="color-2"/><rect width="2" height="4" y="8" data-color="color-2"/><polygon fill="#212121" points="24 16 13 13 16 24 18 20 22 24 24 22 20 18"/></g></svg>